<svg preserveAspectRatio="none" width="100%" height="100%" overflow="visible" style="display: block;" viewBox="0 0 16 16" fill="none" xmlns="http://www.w3.org/2000/svg">
<g id="Icon">
<path id="Vector" d="M5.5 1.33333C4.55573 1.33333 3.66656 1.77792 3.1 2.53333L2.6 3.2C2.21053 3.71929 2 4.35089 2 5V13.3333C2 13.687 2.14048 14.0261 2.39052 14.2761C2.64057 14.5262 2.97971 14.6667 3.33333 14.6667H12.6667C13.0203 14.6667 13.3594 14.5262 13.6095 14.2761C13.8595 14.0261 14 13.687 14 13.3333V5C14 4.35089 13.7895 3.71929 13.4 3.2L12.9 2.53333C12.3334 1.77792 11.4443 1.33333 10.5 1.33333H5.5Z" stroke="var(--stroke-0, white)" stroke-width="1.33333" stroke-linecap="round" stroke-linejoin="round"/>
<path id="Vector_2" d="M2 4H14" stroke="var(--stroke-0, white)" stroke-width="1.33333" stroke-linecap="round" stroke-linejoin="round"/>
<path id="Vector_3" d="M10.6667 6.66667C10.6667 7.37391 10.3857 8.05219 9.88562 8.55228C9.38552 9.05238 8.70724 9.33333 8 9.33333C7.29276 9.33333 6.61448 9.05238 6.11438 8.55228C5.61428 8.05219 5.33333 7.37391 5.33333 6.66667" stroke="var(--stroke-0, white)" stroke-width="1.33333" stroke-linecap="round" stroke-linejoin="round"/>
</g>
</svg>
