<svg preserveAspectRatio="none" width="100%" height="100%" overflow="visible" style="display: block;" viewBox="0 0 13 13" fill="none" xmlns="http://www.w3.org/2000/svg">
<g id="Icon">
<g id="Vector">
<path d="M10.9648 5.28524C10.3553 4.67574 9.52862 4.33333 8.66667 4.33333C7.80471 4.33333 6.97806 4.67574 6.36857 5.28524C5.75908 5.89473 5.41667 6.72138 5.41667 7.58333V11.375H7.58333V7.58333C7.58333 7.29602 7.69747 7.02047 7.90063 6.8173C8.1038 6.61414 8.37935 6.5 8.66667 6.5C8.95398 6.5 9.22953 6.61414 9.4327 6.8173C9.63586 7.02047 9.75 7.29602 9.75 7.58333V11.375H11.9167V7.58333C11.9167 6.72138 11.5743 5.89473 10.9648 5.28524Z" stroke="var(--stroke-0, #555555)" stroke-width="0.975" stroke-linecap="round" stroke-linejoin="round"/>
<path d="M3.25 4.875H1.08333V11.375H3.25V4.875Z" stroke="var(--stroke-0, #555555)" stroke-width="0.975" stroke-linecap="round" stroke-linejoin="round"/>
<path d="M1.40063 4.28687C1.19747 4.0837 1.08333 3.80815 1.08333 3.52083C1.08333 3.23352 1.19747 2.95797 1.40063 2.7548C1.6038 2.55164 1.87935 2.4375 2.16667 2.4375C2.45398 2.4375 2.72953 2.55164 2.9327 2.7548C3.13586 2.95797 3.25 3.23352 3.25 3.52083C3.25 3.80815 3.13586 4.0837 2.9327 4.28687C2.72953 4.49003 2.45398 4.60417 2.16667 4.60417C1.87935 4.60417 1.6038 4.49003 1.40063 4.28687Z" stroke="var(--stroke-0, #555555)" stroke-width="0.975" stroke-linecap="round" stroke-linejoin="round"/>
</g>
</g>
</svg>
