<svg preserveAspectRatio="none" width="100%" height="100%" overflow="visible" style="display: block;" viewBox="0 0 28 28" fill="none" xmlns="http://www.w3.org/2000/svg">
<g id="Icon" clip-path="url(#clip0_0_10)">
<path id="Vector" d="M14 27C21.1797 27 27 21.1797 27 14C27 6.8203 21.1797 1 14 1C6.8203 1 1 6.8203 1 14C1 21.1797 6.8203 27 14 27Z" stroke="var(--stroke-0, #0A0A0A)" stroke-width="1.5"/>
<path id="Vector_2" d="M9 10.5C9.82843 10.5 10.5 9.82843 10.5 9C10.5 8.17157 9.82843 7.5 9 7.5C8.17157 7.5 7.5 8.17157 7.5 9C7.5 9.82843 8.17157 10.5 9 10.5Z" fill="var(--fill-0, #0A0A0A)"/>
<path id="Vector_3" d="M14 10.5C14.8284 10.5 15.5 9.82843 15.5 9C15.5 8.17157 14.8284 7.5 14 7.5C13.1716 7.5 12.5 8.17157 12.5 9C12.5 9.82843 13.1716 10.5 14 10.5Z" fill="var(--fill-0, #0A0A0A)"/>
<path id="Vector_4" d="M19 10.5C19.8284 10.5 20.5 9.82843 20.5 9C20.5 8.17157 19.8284 7.5 19 7.5C18.1716 7.5 17.5 8.17157 17.5 9C17.5 9.82843 18.1716 10.5 19 10.5Z" fill="var(--fill-0, #0A0A0A)"/>
<path id="Vector_5" d="M9 15.5C9.82843 15.5 10.5 14.8284 10.5 14C10.5 13.1716 9.82843 12.5 9 12.5C8.17157 12.5 7.5 13.1716 7.5 14C7.5 14.8284 8.17157 15.5 9 15.5Z" fill="var(--fill-0, #0A0A0A)"/>
<path id="Vector_6" d="M14 15.5C14.8284 15.5 15.5 14.8284 15.5 14C15.5 13.1716 14.8284 12.5 14 12.5C13.1716 12.5 12.5 13.1716 12.5 14C12.5 14.8284 13.1716 15.5 14 15.5Z" fill="var(--fill-0, #0A0A0A)"/>
<path id="Vector_7" d="M19 15.5C19.8284 15.5 20.5 14.8284 20.5 14C20.5 13.1716 19.8284 12.5 19 12.5C18.1716 12.5 17.5 13.1716 17.5 14C17.5 14.8284 18.1716 15.5 19 15.5Z" fill="var(--fill-0, #0A0A0A)"/>
<path id="Vector_8" d="M9 20.5C9.82843 20.5 10.5 19.8284 10.5 19C10.5 18.1716 9.82843 17.5 9 17.5C8.17157 17.5 7.5 18.1716 7.5 19C7.5 19.8284 8.17157 20.5 9 20.5Z" fill="var(--fill-0, #0A0A0A)"/>
<path id="Vector_9" d="M14 20.5C14.8284 20.5 15.5 19.8284 15.5 19C15.5 18.1716 14.8284 17.5 14 17.5C13.1716 17.5 12.5 18.1716 12.5 19C12.5 19.8284 13.1716 20.5 14 20.5Z" fill="var(--fill-0, #0A0A0A)"/>
<path id="Vector_10" d="M19 20.5C19.8284 20.5 20.5 19.8284 20.5 19C20.5 18.1716 19.8284 17.5 19 17.5C18.1716 17.5 17.5 18.1716 17.5 19C17.5 19.8284 18.1716 20.5 19 20.5Z" fill="var(--fill-0, #0A0A0A)"/>
</g>
<defs>
<clipPath id="clip0_0_10">
<rect width="28" height="28" fill="white"/>
</clipPath>
</defs>
</svg>
